<svg width="1440" height="1384" viewBox="0 0 1440 1384" fill="none" xmlns="http://www.w3.org/2000/svg">
<g clip-path="url(#clip0_4777_704)">
<rect width="1440" height="1384" fill="white"/>
<g clip-path="url(#clip1_4777_704)">
<rect width="1440" height="1385" fill="white" fill-opacity="0.5"/>
<rect width="1440" height="1385" fill="white" fill-opacity="0.5"/>
<rect width="1440" height="1385" fill="url(#paint0_linear_4777_704)" fill-opacity="0.2"/>
<path d="M541.111 940.927C541.111 1052.55 367.992 1062.73 179.111 1062.73C-9.77039 1062.73 -162.889 972.234 -162.889 860.608C-162.889 748.982 -195.27 660 -6.38892 660C182.492 660 541.111 829.301 541.111 940.927Z" fill="url(#paint1_linear_4777_704)" fill-opacity="0.5"/>
<path d="M1502.11 1000.88C1502.11 1112.51 1282.51 1203 1011.61 1203C740.716 1203 521.111 1112.51 521.111 1000.88C521.111 889.257 740.716 798.767 1011.61 798.767C1282.51 798.767 1502.11 889.257 1502.11 1000.88Z" fill="url(#paint2_linear_4777_704)" fill-opacity="0.5"/>
<path d="M949.111 897.562C949.111 1009.19 795.993 1099.68 607.111 1099.68C418.23 1099.68 265.111 1009.19 265.111 897.562C265.111 785.937 418.23 695.446 607.111 695.446C795.993 695.446 949.111 785.937 949.111 897.562Z" fill="url(#paint3_linear_4777_704)" fill-opacity="0.5"/>
</g>
</g>
<defs>
<linearGradient id="paint0_linear_4777_704" x1="1440" y1="763.546" x2="-0.00172221" y2="764.771" gradientUnits="userSpaceOnUse">
<stop offset="0.42876" stop-color="#0074B1"/>
<stop offset="0.828894" stop-color="#639BB3" stop-opacity="0"/>
</linearGradient>
<linearGradient id="paint1_linear_4777_704" x1="179.111" y1="658.492" x2="179.111" y2="1062.73" gradientUnits="userSpaceOnUse">
<stop stop-color="#D9D9D9"/>
<stop offset="0.0001" stop-color="#615FBE" stop-opacity="0.969962"/>
<stop offset="1" stop-color="#D9D9D9" stop-opacity="0"/>
</linearGradient>
<linearGradient id="paint2_linear_4777_704" x1="1011.61" y1="798.767" x2="1011.61" y2="1203" gradientUnits="userSpaceOnUse">
<stop stop-color="#D9D9D9"/>
<stop offset="0.0001" stop-color="#615FBE" stop-opacity="0.969962"/>
<stop offset="1" stop-color="#D9D9D9" stop-opacity="0"/>
</linearGradient>
<linearGradient id="paint3_linear_4777_704" x1="607.111" y1="695.446" x2="607.111" y2="1099.68" gradientUnits="userSpaceOnUse">
<stop stop-color="#D9D9D9"/>
<stop offset="0.0001" stop-color="#615FBE" stop-opacity="0.969962"/>
<stop offset="1" stop-color="#D9D9D9" stop-opacity="0"/>
</linearGradient>
<clipPath id="clip0_4777_704">
<rect width="1440" height="1384" fill="white"/>
</clipPath>
<clipPath id="clip1_4777_704">
<rect width="1440" height="1385" fill="white"/>
</clipPath>
</defs>
</svg>
