<svg width="1440" height="1625" viewBox="0 0 1440 1625" fill="none" xmlns="http://www.w3.org/2000/svg">
<g clip-path="url(#clip0_4826_703)">
<rect width="1440" height="1625" fill="white"/>
<path d="M33.42 249V235H35.52V241H42.96V235H45.06V249H42.96V242.9H35.52V249H33.42ZM52.9122 249.2C51.9255 249.2 51.0255 248.967 50.2122 248.5C49.4122 248.033 48.7789 247.4 48.3122 246.6C47.8455 245.8 47.6122 244.907 47.6122 243.92C47.6122 242.933 47.8455 242.04 48.3122 241.24C48.7789 240.44 49.4122 239.807 50.2122 239.34C51.0255 238.86 51.9255 238.62 52.9122 238.62C53.9122 238.62 54.8122 238.86 55.6122 239.34C56.4122 239.807 57.0455 240.44 57.5122 241.24C57.9789 242.04 58.2122 242.933 58.2122 243.92C58.2122 244.907 57.9789 245.8 57.5122 246.6C57.0455 247.4 56.4122 248.033 55.6122 248.5C54.8122 248.967 53.9122 249.2 52.9122 249.2ZM52.9122 247.44C53.5389 247.44 54.1055 247.287 54.6122 246.98C55.1189 246.66 55.5189 246.233 55.8122 245.7C56.1055 245.167 56.2522 244.567 56.2522 243.9C56.2522 243.247 56.0989 242.66 55.7922 242.14C55.4989 241.607 55.0989 241.18 54.5922 240.86C54.0989 240.54 53.5389 240.38 52.9122 240.38C52.2855 240.38 51.7189 240.54 51.2122 240.86C50.7189 241.18 50.3189 241.607 50.0122 242.14C49.7189 242.66 49.5722 243.247 49.5722 243.9C49.5722 244.567 49.7189 245.167 50.0122 245.7C50.3055 246.233 50.7055 246.66 51.2122 246.98C51.7189 247.287 52.2855 247.44 52.9122 247.44ZM60.5034 249V238.82H62.5034V239.8C63.2634 239.013 64.2168 238.62 65.3634 238.62C66.0568 238.62 66.6701 238.773 67.2034 239.08C67.7501 239.387 68.1834 239.8 68.5034 240.32C68.9301 239.76 69.4301 239.34 70.0034 239.06C70.5768 238.767 71.2234 238.62 71.9434 238.62C72.7034 238.62 73.3634 238.787 73.9234 239.12C74.4968 239.453 74.9434 239.92 75.2634 240.52C75.5968 241.12 75.7634 241.813 75.7634 242.6V249H73.7634V242.94C73.7634 242.14 73.5501 241.513 73.1234 241.06C72.7101 240.593 72.1434 240.36 71.4234 240.36C70.9301 240.36 70.4834 240.473 70.0834 240.7C69.6834 240.927 69.3368 241.273 69.0434 241.74C69.0701 241.873 69.0901 242.013 69.1034 242.16C69.1168 242.307 69.1234 242.453 69.1234 242.6V249H67.1434V242.94C67.1434 242.14 66.9301 241.513 66.5034 241.06C66.0901 240.593 65.5234 240.36 64.8034 240.36C64.3234 240.36 63.8901 240.467 63.5034 240.68C63.1168 240.88 62.7834 241.187 62.5034 241.6V249H60.5034ZM83.342 249.18C82.342 249.18 81.4354 248.947 80.622 248.48C79.822 248.013 79.182 247.38 78.702 246.58C78.2354 245.78 78.002 244.887 78.002 243.9C78.002 242.927 78.2287 242.047 78.682 241.26C79.1354 240.46 79.7487 239.827 80.522 239.36C81.2954 238.88 82.1554 238.64 83.102 238.64C84.0487 238.64 84.8887 238.88 85.622 239.36C86.3554 239.827 86.9354 240.467 87.362 241.28C87.802 242.08 88.022 242.987 88.022 244V244.56H80.002C80.1087 245.12 80.3154 245.62 80.622 246.06C80.942 246.5 81.342 246.847 81.822 247.1C82.3154 247.353 82.8487 247.48 83.422 247.48C83.9154 247.48 84.3887 247.407 84.842 247.26C85.3087 247.1 85.6954 246.873 86.002 246.58L87.282 247.84C86.682 248.293 86.062 248.633 85.422 248.86C84.7954 249.073 84.102 249.18 83.342 249.18ZM80.022 243.06H86.042C85.962 242.527 85.7754 242.06 85.482 241.66C85.202 241.247 84.8487 240.927 84.422 240.7C84.0087 240.46 83.5554 240.34 83.062 240.34C82.5554 240.34 82.0887 240.453 81.662 240.68C81.2354 240.907 80.8754 241.227 80.582 241.64C80.302 242.04 80.1154 242.513 80.022 243.06Z" fill="white"/>
<path d="M32 254H88.742V256H32V254Z" fill="white"/>
<rect x="0.5" y="0.5" width="1439" height="1624" fill="url(#paint0_linear_4826_703)" fill-opacity="0.3"/>
<rect x="0.5" y="0.5" width="1439" height="1624" stroke="black"/>
<g opacity="0.7">
<path d="M634.111 1187.5C634.111 1335.51 460.992 1349 272.111 1349C83.2296 1349 -69.889 1229.01 -69.889 1081C-69.889 932.988 -102.27 815 86.6111 815C275.492 815 634.111 1039.49 634.111 1187.5Z" fill="url(#paint1_linear_4826_703)" fill-opacity="0.5"/>
<path d="M1595.11 1267C1595.11 1415.01 1375.51 1535 1104.61 1535C833.716 1535 614.111 1415.01 614.111 1267C614.111 1118.99 833.716 999 1104.61 999C1375.51 999 1595.11 1118.99 1595.11 1267Z" fill="url(#paint2_linear_4826_703)" fill-opacity="0.5"/>
<path d="M1042.11 1130C1042.11 1278.01 888.993 1398 700.111 1398C511.23 1398 358.111 1278.01 358.111 1130C358.111 981.988 511.23 862 700.111 862C888.993 862 1042.11 981.988 1042.11 1130Z" fill="url(#paint3_linear_4826_703)" fill-opacity="0.5"/>
</g>
</g>
<defs>
<linearGradient id="paint0_linear_4826_703" x1="2.16421e-06" y1="879.649" x2="1439.88" y2="866.45" gradientUnits="userSpaceOnUse">
<stop offset="0.17876" stop-color="#DDEAF7"/>
<stop offset="0.745234" stop-color="#3991EC" stop-opacity="0.5"/>
</linearGradient>
<linearGradient id="paint1_linear_4826_703" x1="272.111" y1="813" x2="272.111" y2="1349" gradientUnits="userSpaceOnUse">
<stop stop-color="#D9D9D9"/>
<stop offset="0.0001" stop-color="#615FBE" stop-opacity="0.969962"/>
<stop offset="1" stop-color="#D9D9D9" stop-opacity="0"/>
</linearGradient>
<linearGradient id="paint2_linear_4826_703" x1="1104.61" y1="999" x2="1104.61" y2="1535" gradientUnits="userSpaceOnUse">
<stop stop-color="#D9D9D9"/>
<stop offset="0.0001" stop-color="#615FBE" stop-opacity="0.969962"/>
<stop offset="1" stop-color="#D9D9D9" stop-opacity="0"/>
</linearGradient>
<linearGradient id="paint3_linear_4826_703" x1="700.111" y1="862" x2="700.111" y2="1398" gradientUnits="userSpaceOnUse">
<stop stop-color="#D9D9D9"/>
<stop offset="0.0001" stop-color="#615FBE" stop-opacity="0.969962"/>
<stop offset="1" stop-color="#D9D9D9" stop-opacity="0"/>
</linearGradient>
<clipPath id="clip0_4826_703">
<rect width="1440" height="1625" fill="white"/>
</clipPath>
</defs>
</svg>
